<?xml version="1.0" encoding="UTF-8"?> <svg xmlns="http://www.w3.org/2000/svg" id="Layer_2" data-name="Layer 2" width="56.361" height="55.52" viewBox="0 0 56.361 55.52"><g id="Layer_1" data-name="Layer 1" transform="translate(0 0)"><rect id="rect8" width="56.361" height="55.52" transform="translate(0)" fill="none"></rect><path id="path10" d="M28.18,98.039V95.272a1.641,1.641,0,0,0-1.734-1.752A1.706,1.706,0,0,0,24.9,94.3a1.618,1.618,0,0,0-1.457-.784,1.457,1.457,0,0,0-1.291.655v-.544H21.19v4.408h.968V95.613a1.033,1.033,0,0,1,1.079-1.171c.636,0,.959.415.959,1.162v2.453h.968V95.613a1.037,1.037,0,0,1,1.079-1.171c.655,0,.968.415.968,1.162v2.453Zm14.326-4.408H40.929V92.293h-.968v1.337h-.876v.876h.895v2.029c0,1.024.4,1.632,1.531,1.632a2.25,2.25,0,0,0,1.2-.341l-.277-.821a1.77,1.77,0,0,1-.848.249c-.461,0-.636-.3-.636-.738v-2.01h1.568Zm8.18-.111a1.3,1.3,0,0,0-1.162.646v-.535h-.95v4.408h.959V95.567c0-.729.314-1.134.922-1.134a1.563,1.563,0,0,1,.6.111l.3-.922a2.051,2.051,0,0,0-.682-.12Zm-12.366.461a3.3,3.3,0,0,0-1.8-.461c-1.116,0-1.844.535-1.844,1.411,0,.719.535,1.162,1.522,1.3l.461.065c.526.074.775.212.775.461,0,.341-.35.535-1.005.535a2.347,2.347,0,0,1-1.466-.461l-.461.747a3.181,3.181,0,0,0,1.909.572c1.273,0,2.01-.6,2.01-1.439s-.581-1.18-1.54-1.319l-.461-.065c-.415-.055-.747-.138-.747-.433s.314-.516.839-.516a2.84,2.84,0,0,1,1.383.378Zm25.687-.461a1.3,1.3,0,0,0-1.162.646v-.535H61.9v4.408h.959V95.567c0-.729.314-1.134.922-1.134a1.563,1.563,0,0,1,.6.111l.3-.922a2.051,2.051,0,0,0-.682-.12ZM51.65,95.825A2.227,2.227,0,0,0,54,98.131a2.305,2.305,0,0,0,1.586-.526l-.461-.775a1.936,1.936,0,0,1-1.153.4,1.416,1.416,0,0,1,0-2.822,1.936,1.936,0,0,1,1.153.4l.461-.775A2.305,2.305,0,0,0,54,93.5a2.227,2.227,0,0,0-2.352,2.305Zm8.982,0V93.631h-.959v.535a1.674,1.674,0,0,0-1.383-.646,2.305,2.305,0,1,0,0,4.611,1.674,1.674,0,0,0,1.383-.646v.535h.959Zm-3.569,0a1.323,1.323,0,1,1,.36,1,1.333,1.333,0,0,1-.36-1ZM45.49,93.52a2.306,2.306,0,1,0,.065,4.611,2.679,2.679,0,0,0,1.831-.6l-.461-.71a2.1,2.1,0,0,1-1.282.461A1.222,1.222,0,0,1,44.323,96.2H47.6v-.369A2.1,2.1,0,0,0,45.5,93.529Zm0,.858a1.093,1.093,0,0,1,1.116,1.07H44.3a1.134,1.134,0,0,1,1.171-1.07Zm24.027,1.457V91.86h-.922v2.305a1.674,1.674,0,0,0-1.383-.646,2.305,2.305,0,1,0,0,4.611,1.674,1.674,0,0,0,1.383-.646v.535h.922Zm1.6,1.563a.443.443,0,0,1,.415.263.429.429,0,0,1,0,.341.441.441,0,0,1-.24.231.433.433,0,0,1-.175.037A.461.461,0,0,1,70.7,98a.433.433,0,0,1,0-.341.448.448,0,0,1,.429-.263Zm0,.779a.328.328,0,0,0,.134-.028.345.345,0,0,0,.106-.074.332.332,0,0,0-.106-.535.331.331,0,0,0-.134-.028.346.346,0,0,0-.134.028.337.337,0,0,0-.111.074.335.335,0,0,0,.258.563Zm.028-.549a.184.184,0,0,1,.12.037.115.115,0,0,1,.042.1.111.111,0,0,1-.032.083.161.161,0,0,1-.1.042l.134.152H71.2l-.124-.152h-.042v.152h-.088v-.406Zm-.1.078v.111h.1a.1.1,0,0,0,.055,0,225.76,225.76,0,0,1,0-.083.1.1,0,0,0-.055,0Zm-5.072-1.872a1.323,1.323,0,1,1,.36,1A1.333,1.333,0,0,1,65.971,95.835Zm-32.382,0v-2.2H32.63v.535a1.674,1.674,0,0,0-1.383-.646,2.305,2.305,0,1,0,0,4.611,1.674,1.674,0,0,0,1.383-.646v.535h.959Zm-3.569,0a.565.565,0,1,1-.009,0Z" transform="translate(-18.407 -49.504)" fill="#525252"></path><g id="_Group_" data-name="&lt;Group&gt;" transform="translate(0 6.986)"><path id="Unión_7" data-name="Unión 7" d="M7.262,29.652H0V3.55H7.262A16.6,16.6,0,0,1,34.121,16.6v0A16.6,16.6,0,0,1,7.262,29.652Z" transform="translate(19.594 0)" fill="rgba(82,82,82,0.73)"></path><path id="_Path_" data-name="&lt;Path&gt;" d="M35.671,31.756A16.572,16.572,0,0,1,42.011,18.7a16.6,16.6,0,1,0,0,26.1,16.572,16.572,0,0,1-6.34-13.049Z" transform="translate(-15.155 -15.153)" fill="#525252"></path><path id="path17" d="M127.822,72.706v-.535h.217V72.06h-.549v.111h.235v.535Zm1.065,0V72.06h-.166l-.194.461-.194-.461h-.148v.646h.12v-.484l.18.42h.125l.18-.42v.489Z" transform="translate(-75.693 -45.82)" fill="#f79e1b"></path></g></g></svg> 