<?xml version="1.0" encoding="UTF-8"?> <svg xmlns="http://www.w3.org/2000/svg" width="15.999" height="16.001" viewBox="0 0 15.999 16.001"><path id="Lupa" d="M9.5-8a.376.376,0,0,0-.375-.375H7.375v-1.75A.376.376,0,0,0,7-10.5H6a.376.376,0,0,0-.375.375v1.75H3.875A.376.376,0,0,0,3.5-8v1a.376.376,0,0,0,.375.375h1.75v1.75A.376.376,0,0,0,6-4.5H7a.376.376,0,0,0,.375-.375v-1.75h1.75A.376.376,0,0,0,9.5-7ZM15.781.9a.756.756,0,0,0,0-1.062L12.666-3.281a.749.749,0,0,0-.531-.219h-.509A6.468,6.468,0,0,0,13-7.5,6.5,6.5,0,0,0,6.5-14,6.5,6.5,0,0,0,0-7.5,6.5,6.5,0,0,0,6.5-1a6.468,6.468,0,0,0,4-1.375v.509a.749.749,0,0,0,.219.531l3.119,3.116a.747.747,0,0,0,1.059,0ZM10.75-7.5A4.246,4.246,0,0,1,6.5-3.25,4.246,4.246,0,0,1,2.25-7.5,4.246,4.246,0,0,1,6.5-11.75,4.246,4.246,0,0,1,10.75-7.5Z" transform="translate(0 14)" fill="#627069"></path></svg> 