<?xml version="1.0" encoding="UTF-8"?> <svg xmlns="http://www.w3.org/2000/svg" width="18" height="16" viewBox="0 0 18 16"><path id="maps" d="M9-14a3.937,3.937,0,0,0-3.937,3.938C5.063-8.3,7.636-5.1,8.622-3.937a.493.493,0,0,0,.756,0c.986-1.163,3.559-4.367,3.559-6.126A3.937,3.937,0,0,0,9-14ZM9-8.75a1.312,1.312,0,0,1-1.312-1.312A1.312,1.312,0,0,1,9-11.375a1.312,1.312,0,0,1,1.313,1.313A1.312,1.312,0,0,1,9-8.75ZM.629-7.252A1,1,0,0,0,0-6.323V1.5a.5.5,0,0,0,.686.464L5,0V-7.284a9.463,9.463,0,0,1-.664-1.451ZM9-2.76a1.493,1.493,0,0,1-1.141-.53C7.245-4.015,6.591-4.841,6-5.688V0l6,2V-5.687c-.591.847-1.244,1.672-1.859,2.4A1.494,1.494,0,0,1,9-2.76Zm8.314-6.2L13-7V2L17.371.252A1,1,0,0,0,18-.677V-8.5A.5.5,0,0,0,17.314-8.964Z" transform="translate(0 14)" fill="#fff"></path></svg> 