<?xml version="1.0" encoding="UTF-8"?> <svg xmlns="http://www.w3.org/2000/svg" xmlns:xlink="http://www.w3.org/1999/xlink" id="Marca_footer" data-name="Marca footer" width="95.32" height="101.414" viewBox="0 0 95.32 101.414"><defs><clipPath id="clip-path"><rect id="Rectángulo_89" data-name="Rectángulo 89" width="95.32" height="101.414" fill="#fff"></rect></clipPath></defs><g id="Grupo_360" data-name="Grupo 360" clip-path="url(#clip-path)"><path id="Trazado_15873" data-name="Trazado 15873" d="M22.045-31.669c-2.26.765-6.606,1.113-10.466,1.287.9-3.2-2.364-3.095-3.129-.9L8.1-30.243c-.765,0-1.46.035-2.051.035-2.225.1-2.538,3.025,0,2.851a9.251,9.251,0,0,1,1.043-.07C4.173-19.151-.661-5.417.07-.132.278,1.294,3.442,2.024,3.234-.618,2.99-3.609,4.312-8.859,6.05-14.283a72.676,72.676,0,0,0,7.058-1.808c1.7-.452,1.287-1.634-.174-1.321-1.878.382-4.207.626-6.154.834,1.356-4.138,2.851-8.206,3.929-11.266,4.277-.556,9.319-1.53,11.892-2.643C24.061-31.147,23.609-32.19,22.045-31.669Zm7.024,20.376c-1.182,2.017-6.537,13.456-9.84,13.456-1.947,0,.278-10.153.765-12.274l.487-1.982c4.972-2.5,12.274-12.622,12.2-18.428,0-1.739-.661-3.408-2.677-3.547-6.85-.487-11.544,13.769-13.561,23.5-.73,3.581-3.408,14.534,2.191,14.534,4.59,0,9.805-11.44,11.579-14.638C30.842-11.745,29.625-12.267,29.068-11.293Zm.974-21.488c1.043.07,1.321,1.217,1.356,2.26.07,5.146-6.328,14.047-10.431,16.69C21.8-16.891,26.008-32.955,30.042-32.781ZM41.9-11.05a12.544,12.544,0,0,1-3.825.8,12.363,12.363,0,0,0,.487-2.295c.243-2.608-.626-5.668-3.686-5.668-2.33,0-3.79,2.225-3.616,4.451-2.156,1.043-3.72,4.312-3.651,7.024.07,2.677,1.634,3.964,3.477,3.964,2.955-.07,5.285-3.095,6.5-6.154a14.374,14.374,0,0,0,4.451-.8C43.846-10.319,43.22-11.5,41.9-11.05ZM31.467-4.339c-.765,0-1.252-.7-1.078-2.33A8.724,8.724,0,0,1,32.3-11.154a5.975,5.975,0,0,0,3.3,2.017C34.7-6.738,33.241-4.3,31.467-4.339Zm5.146-9.423a14.486,14.486,0,0,1-.591,3.373A3.864,3.864,0,0,1,33.1-14.422c.035-1.252.661-2.26,1.7-2.225C36.266-16.543,36.648-15.222,36.613-13.762Zm17.629,2.747C52.712-8.407,47.566.355,45.619.355c-.417,0-.452-.556-.243-1.391.661-2.573,3.512-7.893,3.755-8.554.452-1.287-.348-1.565-1.46-1.6-1.565-.035-5.32.487-3.095-2.5,2.156-2.121-1.669-2.33-2.747-.9a5.162,5.162,0,0,0-1.113,2.538,2.474,2.474,0,0,0,2.538,2.643c1.217.035,2.434-.487,1.843.765-.626,1.356-2.469,4.555-2.851,7.093-.313,1.982.278,3.547,2.955,3.581,3.373,0,8.484-9.353,10.188-12.413C55.946-11.4,54.8-11.988,54.242-11.015Zm12,.174C64.812-8.79,59.6-1.105,57.024-1.071c-1.043.035-1.008-1.634-.974-2.364a25.968,25.968,0,0,1,.869-5.285c3.06-.243,6.989-2.26,7.128-5.7a2.9,2.9,0,0,0-2.816-3.025c-4.833-.243-7.65,5.981-8.206,10.848-.278,2.608,0,6.954,3.651,6.954,3.581,0,8.658-7.65,10.64-10.466C68.394-11.71,67.246-12.3,66.238-10.841Zm-4.972-4.937a1.267,1.267,0,0,1,1.46,1.426c-.07,2.5-3.164,4-5.389,4.277C57.789-11.571,59.319-15.6,61.266-15.778ZM74.2-11.328a40.262,40.262,0,0,0-4.659,3.234,17.806,17.806,0,0,1-.452-4.659c.1-.9.313-1.912.9-2.26,1.669-.939,1.217-3.755-1.634-2.643-1.843.7-2.643,2.921-2.747,4.764a33.835,33.835,0,0,0,.974,7.232c-2.364,2.051-5.042,4.346-5.111,7.789a3.18,3.18,0,0,0,3.3,3.581c2.538.07,5.285-2.573,5.668-7.024a20.567,20.567,0,0,0-.591-5.355,43.175,43.175,0,0,1,4.764-3.408C75.939-10.841,75.383-11.988,74.2-11.328ZM66.864-1.523c-.243,3.477-1.669,5.042-2.921,5.111-.869.07-1.252-.556-1.217-1.53.1-2.677,2.225-4.52,4.068-6.189A13.155,13.155,0,0,1,66.864-1.523Z" transform="translate(0.456 34.217)" fill="#fff"></path><path id="Trazado_15872" data-name="Trazado 15872" d="M26.408-29.046h-.035c-.7,1.391-1.391,2.886-2.121,4.381-1.078,2.26-6.4,14.291-9.318,14.291-1.739,0-1.565-3.686-1.46-4.694.556-4.729,2.99-11.787,4.381-15.09,1.391-3.268-2.051-4.312-3.477-1.113A49.3,49.3,0,0,0,10.622-17.05C10.413-14.3,10.378-8.6,14.377-8.6c3.442,0,7.024-6.745,9.284-11.613C22.166-15,20.6-9.331,19.523-5.68,14.655-6.723,8.4-3.629,8.466,1.761c.035,2.364,1.773,3.755,4.068,3.894,5.076.278,7.823-5.042,9.388-9.04A10.389,10.389,0,0,1,23.765-2.1c1.147.974,2.086.035.73-1.113a14.841,14.841,0,0,0-2.086-1.426C24.5-10.513,27.659-23.17,29.4-27.2,30.684-30.228,27.416-30.819,26.408-29.046ZM12.5,4.334A2.588,2.588,0,0,1,9.753,1.761c-.1-4.52,5.494-6.954,9.388-6.189C18.237-1.612,16.255,4.369,12.5,4.334Zm30.876-15.09c-1.5,2.643-5.529,9.492-7.441,9.492-.382,0-.487-.382-.452-1.043.1-2.121,1.912-6.885,3.095-9.666,1.391-3.3-1.912-4.138-3.268-1.182-1.739,2.747-5.772,9.388-7.337,9.388-.278,0-.382-.313-.382-.8.035-1.982,2.26-9.666,4.659-9.492,1.182.07.626,1.878.278,2.538-.661,1.287.487,1.912,1.182.626.974-1.947.9-4.416-1.843-4.52-4.659-.243-7.267,5.633-7.337,9.771-.035,2.26.939,4.033,3.2,4.033,1.565.1,3.512-2.33,5.25-5.007a21.081,21.081,0,0,0-.522,2.747c-.209,2.608.417,4.624,2.921,4.624,3.373,0,7.441-7.789,9.145-10.848C45.114-11.139,43.967-11.7,43.376-10.757Zm3.408.487C51.86-12.808,59.4-21.222,59.544-27.029c.07-1.7-.522-3.408-2.538-3.547C48.487-31.167,42.645-10.3,41.324-3.211,40.837-.673,39.134,7.672,43.932,7.776c3.894.07,5.7-8.275,6.12-11.335,2.782-.035,6.085-4.312,7.476-6.189.765-1.043-.243-1.878-1.043-.765-1.252,1.7-4.138,5.459-6.293,5.668a12.622,12.622,0,0,0,0-2.295c-.1-.939-.626-1.982-1.739-1.912a1.959,1.959,0,0,0-1.6,2.121A3.512,3.512,0,0,0,48.765-3.8C48.487-1.716,46.574,6.351,44.28,6.351c-.869,0-.939-1.182-.9-1.773C43.619,1.239,45.531-5.784,46.783-10.27ZM56.971-29.254c1.043.035,1.321,1.182,1.287,2.225-.1,5.146-6.745,12.378-10.953,15.056C48.278-15.381,53.077-29.463,56.971-29.254Zm-8.8,22.288c-.035-.417.139-.765.348-.765.243-.035.348.313.382.8a8.872,8.872,0,0,1,0,1.7A2.337,2.337,0,0,1,48.174-6.967Zm20.758-4.068C67.4-8.427,62.256.335,60.309.335c-.417,0-.452-.556-.243-1.391.661-2.573,3.512-7.893,3.755-8.554.452-1.287-.348-1.565-1.46-1.6-1.565-.035-5.32.487-3.095-2.5,2.156-2.121-1.669-2.33-2.747-.9a5.162,5.162,0,0,0-1.113,2.538,2.474,2.474,0,0,0,2.538,2.643c1.217.035,2.434-.487,1.843.765-.626,1.356-2.469,4.555-2.851,7.093C56.623.4,57.214,1.969,59.892,2c3.373,0,8.484-9.353,10.188-12.413C70.636-11.417,69.488-12.008,68.932-11.035Zm17.455.278c-1.5,2.643-5.529,9.492-7.441,9.492-.382,0-.487-.382-.452-1.043.1-2.121,1.912-6.885,3.095-9.666,1.391-3.3-1.912-4.138-3.268-1.182-1.739,2.747-5.772,9.388-7.337,9.388-.278,0-.382-.313-.382-.8.035-1.982,2.26-9.666,4.659-9.492,1.182.07.626,1.878.278,2.538-.661,1.287.487,1.912,1.182.626.974-1.947.9-4.416-1.843-4.52-4.659-.243-7.267,5.633-7.337,9.771-.035,2.26.939,4.033,3.2,4.033,1.565.1,3.512-2.33,5.25-5.007a21.079,21.079,0,0,0-.522,2.747C75.26-1.264,75.886.753,78.39.753c3.373,0,7.441-7.789,9.145-10.848C88.125-11.139,86.978-11.7,86.387-10.757Z" transform="translate(0.196 78.679)" fill="#fff"></path></g></svg> 