<?xml version="1.0" encoding="UTF-8"?> <svg xmlns="http://www.w3.org/2000/svg" xmlns:xlink="http://www.w3.org/1999/xlink" id="Marca_Header" data-name="Marca Header" width="138.929" height="187.331" viewBox="0 0 138.929 187.331"><defs><style> .cls-1 { fill: #fff; } .cls-2 { fill: #c17f9e; } .cls-3 { clip-path: url(#clip-path); } </style><clipPath id="clip-path"><rect id="Rectángulo_89" data-name="Rectángulo 89" class="cls-1" width="115.32" height="122.693"></rect></clipPath></defs><path id="Trazado_15848" data-name="Trazado 15848" class="cls-2" d="M0-40H138.929V147.331S67.241,135.125,67.824,135,0,147.331,0,147.331Z" transform="translate(0 40)"></path><path id="Trazado_15848_-_Contorno" data-name="Trazado 15848 - Contorno" class="cls-2" d="M1-39V146.133l32.7-5.952c8.473-1.542,16.948-3.083,23.312-4.239C67.7,134,67.7,134,67.828,134h.9l.02.186c5.922,1.154,50.251,8.737,69.182,11.962V-39H1M0-40H138.929V147.331S67.241,135.125,67.824,135h0C67.732,135,0,147.331,0,147.331Z" transform="translate(0 40)"></path><g id="Grupo_2226" data-name="Grupo 2226" transform="translate(14.68 52.872)"><g id="Grupo_360" data-name="Grupo 360" class="cls-3"><path id="Trazado_15873" data-name="Trazado 15873" class="cls-1" d="M26.671-31.163c-2.734.925-7.993,1.346-12.662,1.556,1.094-3.87-2.86-3.744-3.786-1.094L9.8-29.438c-.925,0-1.767.042-2.482.042-2.692.126-3.071,3.66,0,3.449a11.192,11.192,0,0,1,1.262-.084C5.049-16.019-.8.6.085,6.991.338,8.716,4.166,9.6,3.913,6.4c-.294-3.618,1.3-9.97,3.407-16.532a87.926,87.926,0,0,0,8.539-2.187c2.061-.547,1.556-1.977-.21-1.6-2.272.463-5.09.757-7.446,1.01,1.641-5.006,3.449-9.928,4.753-13.629,5.174-.673,11.274-1.851,14.387-3.2C29.111-30.532,28.564-31.794,26.671-31.163Zm8.5,24.651c-1.43,2.44-7.908,16.28-11.9,16.28-2.356,0,.337-12.283.925-14.849l.589-2.4c6.015-3.029,14.849-15.27,14.765-22.295,0-2.1-.8-4.122-3.239-4.291C28.017-34.654,22.338-17.407,19.9-5.629c-.883,4.333-4.122,17.584,2.65,17.584,5.553,0,11.863-13.84,14.008-17.71C37.314-7.059,35.841-7.69,35.168-6.512Zm1.178-26c1.262.084,1.6,1.472,1.641,2.734.084,6.226-7.656,16.995-12.62,20.192C26.376-13.285,31.466-32.719,36.346-32.509ZM50.691-6.217a15.176,15.176,0,0,1-4.627.968,14.958,14.958,0,0,0,.589-2.776c.294-3.155-.757-6.857-4.459-6.857-2.818,0-4.585,2.692-4.375,5.384C35.21-8.237,33.317-4.282,33.4-1c.084,3.239,1.977,4.8,4.207,4.8C41.184,3.71,44,.05,45.474-3.651a17.39,17.39,0,0,0,5.384-.968C53.046-5.334,52.289-6.764,50.691-6.217ZM38.071,1.9c-.925,0-1.514-.841-1.3-2.818A10.554,10.554,0,0,1,39.08-6.344a7.229,7.229,0,0,0,4,2.44C41.983-1,40.216,1.943,38.071,1.9ZM44.3-9.5a17.525,17.525,0,0,1-.715,4.08,4.675,4.675,0,0,1-3.534-4.88c.042-1.514.8-2.734,2.061-2.692C43.876-12.864,44.339-11.265,44.3-9.5ZM65.624-6.175C63.773-3.02,57.547,7.58,55.192,7.58c-.5,0-.547-.673-.294-1.683.8-3.113,4.249-9.549,4.543-10.348.547-1.556-.421-1.893-1.767-1.935-1.893-.042-6.436.589-3.744-3.029,2.608-2.566-2.019-2.818-3.323-1.094A6.245,6.245,0,0,0,49.26-7.437a2.993,2.993,0,0,0,3.071,3.2c1.472.042,2.945-.589,2.229.925C53.8-1.674,51.574,2.2,51.111,5.267c-.379,2.4.337,4.291,3.576,4.333,4.08,0,10.264-11.316,12.325-15.018C67.685-6.638,66.3-7.353,65.624-6.175Zm14.513.21C78.412-3.483,72.1,5.813,68.989,5.855c-1.262.042-1.22-1.977-1.178-2.86A31.416,31.416,0,0,1,68.863-3.4c3.7-.294,8.455-2.734,8.624-6.9a3.5,3.5,0,0,0-3.407-3.66c-5.847-.294-9.255,7.235-9.928,13.125-.337,3.155,0,8.413,4.417,8.413,4.333,0,10.474-9.255,12.872-12.662C82.745-7.017,81.357-7.732,80.137-5.965Zm-6.015-5.973a1.532,1.532,0,0,1,1.767,1.725C75.8-7.185,72.06-5.376,69.368-5.04,69.915-6.848,71.766-11.728,74.121-11.938ZM89.77-6.554a48.71,48.71,0,0,0-5.637,3.912,21.543,21.543,0,0,1-.547-5.637c.126-1.094.379-2.314,1.094-2.734,2.019-1.136,1.472-4.543-1.977-3.2-2.229.841-3.2,3.534-3.323,5.763C79.253-5.46,80.053-2.6,80.558.3c-2.86,2.482-6.1,5.258-6.184,9.423-.042,2.229,1.01,4.207,4,4.333,3.071.084,6.394-3.113,6.857-8.5a24.882,24.882,0,0,0-.715-6.478A52.233,52.233,0,0,1,90.275-5.04C91.873-5.965,91.2-7.353,89.77-6.554ZM80.894,5.309c-.294,4.207-2.019,6.1-3.534,6.184-1.052.084-1.514-.673-1.472-1.851C76.014,6.4,78.58,4.173,80.81,2.154A15.914,15.914,0,0,1,80.894,5.309Z" transform="translate(0.551 34.246)"></path><path id="Trazado_15872" data-name="Trazado 15872" class="cls-1" d="M30.172-28.173H30.13c-.841,1.683-1.683,3.491-2.566,5.3-1.3,2.734-7.74,17.289-11.274,17.289-2.1,0-1.893-4.459-1.767-5.679.673-5.721,3.618-14.26,5.3-18.257,1.683-3.954-2.482-5.216-4.207-1.346A59.643,59.643,0,0,0,11.074-13.66c-.252,3.323-.294,10.222,4.543,10.222,4.165,0,8.5-8.161,11.232-14.05C25.04-11.178,23.147-4.321,21.843.1,15.954-1.166,8.382,2.577,8.466,9.1c.042,2.86,2.145,4.543,4.922,4.711,6.142.337,9.465-6.1,11.358-10.937a12.569,12.569,0,0,1,2.23,1.556c1.388,1.178,2.524.042.883-1.346a17.955,17.955,0,0,0-2.524-1.725c2.524-7.109,6.352-22.421,8.455-27.3C35.346-29.6,31.392-30.318,30.172-28.173ZM13.346,12.211A3.131,3.131,0,0,1,10.023,9.1C9.9,3.629,16.669.684,21.38,1.61,20.287,5.017,17.889,12.253,13.346,12.211ZM50.7-6.046c-1.809,3.2-6.689,11.484-9,11.484-.463,0-.589-.463-.547-1.262C41.278,1.61,43.465-4.153,44.9-7.518c1.683-4-2.314-5.006-3.954-1.43-2.1,3.323-6.983,11.358-8.876,11.358-.337,0-.463-.379-.463-.968.042-2.4,2.734-11.694,5.637-11.484,1.43.084.757,2.272.337,3.071-.8,1.556.589,2.314,1.43.757,1.178-2.356,1.094-5.342-2.229-5.469C31.14-11.977,27.985-4.868,27.9.138c-.042,2.734,1.136,4.88,3.87,4.88,1.893.126,4.249-2.818,6.352-6.058a25.5,25.5,0,0,0-.631,3.323c-.252,3.155.5,5.595,3.534,5.595,4.08,0,9-9.423,11.063-13.125C52.8-6.509,51.416-7.182,50.7-6.046Zm4.122.589c6.142-3.071,15.27-13.251,15.438-20.276.084-2.061-.631-4.122-3.071-4.291C56.884-30.739,49.817-5.5,48.219,3.082c-.589,3.071-2.65,13.167,3.155,13.293,4.711.084,6.9-10.012,7.4-13.714,3.365-.042,7.362-5.216,9.044-7.488.925-1.262-.294-2.272-1.262-.925-1.514,2.061-5.006,6.6-7.614,6.857a15.271,15.271,0,0,0,0-2.776c-.126-1.136-.757-2.4-2.1-2.314a2.37,2.37,0,0,0-1.935,2.566,4.248,4.248,0,0,0,2.314,3.786c-.337,2.524-2.65,12.283-5.427,12.283-1.052,0-1.136-1.43-1.094-2.145C50.995,8.467,53.309-.031,54.823-5.457ZM67.148-28.425c1.262.042,1.6,1.43,1.556,2.692-.126,6.226-8.161,14.976-13.251,18.215C56.632-11.641,62.437-28.678,67.148-28.425ZM56.506-1.461c-.042-.5.168-.925.421-.925.294-.042.421.379.463.968a10.734,10.734,0,0,1,0,2.061A2.828,2.828,0,0,1,56.506-1.461ZM81.619-6.383C79.768-3.228,73.542,7.373,71.187,7.373c-.5,0-.547-.673-.294-1.683.8-3.113,4.249-9.549,4.543-10.348.547-1.556-.421-1.893-1.767-1.935-1.893-.042-6.436.589-3.744-3.029,2.608-2.566-2.019-2.818-3.323-1.094a6.245,6.245,0,0,0-1.346,3.071,2.993,2.993,0,0,0,3.071,3.2c1.472.042,2.945-.589,2.229.925-.757,1.641-2.987,5.511-3.449,8.581-.379,2.4.337,4.291,3.576,4.333,4.08,0,10.264-11.316,12.325-15.018C83.68-6.845,82.292-7.561,81.619-6.383Zm21.117.337c-1.809,3.2-6.689,11.484-9,11.484-.463,0-.589-.463-.547-1.262C93.313,1.61,95.5-4.153,96.931-7.518c1.683-4-2.314-5.006-3.954-1.43C90.873-5.625,85.994,2.409,84.1,2.409c-.337,0-.463-.379-.463-.968.042-2.4,2.734-11.694,5.637-11.484,1.43.084.757,2.272.337,3.071-.8,1.556.589,2.314,1.43.757,1.178-2.356,1.094-5.342-2.229-5.469C83.175-11.977,80.02-4.868,79.936.138c-.042,2.734,1.136,4.88,3.87,4.88C85.7,5.143,88.055,2.2,90.158-1.04a25.5,25.5,0,0,0-.631,3.323c-.252,3.155.5,5.595,3.534,5.595,4.08,0,9-9.423,11.063-13.125C104.839-6.509,103.451-7.182,102.736-6.046Z" transform="translate(2.014 88.22)"></path></g></g></svg> 