<?xml version="1.0" encoding="UTF-8"?> <svg xmlns="http://www.w3.org/2000/svg" id="Mejor_precio" data-name="Mejor precio" width="84.968" height="84.968" viewBox="0 0 84.968 84.968"><g id="Grupo_2150" data-name="Grupo 2150" transform="translate(0 0)"><ellipse id="Elipse_224" data-name="Elipse 224" cx="42.484" cy="42.484" rx="42.484" ry="42.484" fill="#fff" opacity="0.61"></ellipse><path id="Trazado_14874" data-name="Trazado 14874" d="M-16.988-37.562h0a23.945,23.945,0,0,1,9.442,1.825,3.5,3.5,0,0,1,2.08,3.214v24.68a3.421,3.421,0,0,1-1.062,2.5,3.526,3.526,0,0,1-2.447.974,3.661,3.661,0,0,1-1.107-.173,22.5,22.5,0,0,0-6.905-1.021c-4.666,0-9.476,1.217-14.127,2.395-4.77,1.207-9.7,2.456-14.617,2.456a23.934,23.934,0,0,1-9.443-1.826A3.493,3.493,0,0,1-57.25-5.752v-24.68a3.421,3.421,0,0,1,1.062-2.5,3.526,3.526,0,0,1,2.447-.974,3.659,3.659,0,0,1,1.108.173,22.5,22.5,0,0,0,6.9,1.02c4.666,0,9.475-1.217,14.125-2.394C-26.835-36.314-21.9-37.562-16.988-37.562ZM-8.972-6.369A1.478,1.478,0,0,0-7.464-7.844V-32.523a1.477,1.477,0,0,0-.853-1.37,21.985,21.985,0,0,0-8.669-1.669h0c-4.666,0-9.475,1.217-14.125,2.394-4.769,1.207-9.7,2.455-14.616,2.455a24.471,24.471,0,0,1-7.51-1.114,1.661,1.661,0,0,0-.5-.079,1.478,1.478,0,0,0-1.509,1.474v24.68A1.474,1.474,0,0,0-54.4-4.383a21.975,21.975,0,0,0,8.669,1.67c4.666,0,9.476-1.217,14.127-2.395,4.77-1.207,9.7-2.456,14.617-2.456a24.47,24.47,0,0,1,7.51,1.114A1.664,1.664,0,0,0-8.972-6.369Zm-6.6-27.415,1.144.127a19.571,19.571,0,0,1,4.572,1.039l.659.239v5.639l-1.126-.142a5.974,5.974,0,0,1-3.657-1.9,5.979,5.979,0,0,1-1.559-3.854Zm4.375,2.823a17.073,17.073,0,0,0-2.117-.516,3.943,3.943,0,0,0,2.117,2.3Zm-42.318.914,1.243.311a25.79,25.79,0,0,0,4.7.667l1.142.072-.225,1.122a6,6,0,0,1-5.86,4.813h-1Zm4.508,2.871c-.905-.087-1.732-.2-2.508-.348v2.333A4.005,4.005,0,0,0-49.008-27.177Zm17.651-.429a6.7,6.7,0,0,1,5.169,2.547,9.232,9.232,0,0,1,2.055,5.921,9.231,9.231,0,0,1-2.055,5.921,6.7,6.7,0,0,1-5.168,2.547,6.7,6.7,0,0,1-5.169-2.547,9.232,9.232,0,0,1-2.054-5.92,9.232,9.232,0,0,1,2.055-5.921A6.7,6.7,0,0,1-31.357-27.605Zm0,14.936c2.88,0,5.223-2.9,5.223-6.468s-2.343-6.468-5.223-6.468-5.223,2.9-5.223,6.468S-34.237-12.67-31.357-12.67ZM-9.2-15.134v6.906l-1.243-.312a25.476,25.476,0,0,0-4.068-.63l-1.142-.1.252-1.118a5.985,5.985,0,0,1,5.075-4.606Zm-2,4.383v-1.94a3.994,3.994,0,0,0-1.83,1.662C-12.376-10.95-11.771-10.858-11.2-10.75Zm-42.318-.563h1a5.969,5.969,0,0,1,5.955,5.731l.051,1.132-1.13-.091a19.68,19.68,0,0,1-5.217-1.116l-.659-.239Zm4.723,4.63a3.972,3.972,0,0,0-2.723-2.5v1.873A17.385,17.385,0,0,0-48.793-6.683Z" transform="translate(73.952 61.345)" fill="#c17f9e"></path></g></svg> 