<?xml version="1.0" encoding="UTF-8"?> <svg xmlns="http://www.w3.org/2000/svg" id="Modelos_únicos" data-name="Modelos únicos" width="85.349" height="85.348" viewBox="0 0 85.349 85.348"><g id="Grupo_1956" data-name="Grupo 1956" transform="translate(0 0)"><ellipse id="Elipse_225" data-name="Elipse 225" cx="42.674" cy="42.674" rx="42.674" ry="42.674" fill="#fff" opacity="0.6"></ellipse><path id="Trazado_12834" data-name="Trazado 12834" d="M-27.927-40.376h0a3.487,3.487,0,0,1,3.144,1.948l4.871,9.876,10.9,1.589a3.476,3.476,0,0,1,2.823,2.383,3.479,3.479,0,0,1-.886,3.59l-7.882,7.681L-13.1-2.46A3.427,3.427,0,0,1-13.859.373a3.52,3.52,0,0,1-2.693,1.26,3.454,3.454,0,0,1-1.622-.4L-27.921-3.9l-9.748,5.124a3.44,3.44,0,0,1-1.625.408A3.515,3.515,0,0,1-41.982.377a3.431,3.431,0,0,1-.763-2.836l1.865-10.851-7.883-7.681a3.479,3.479,0,0,1-.886-3.59,3.476,3.476,0,0,1,2.823-2.383l10.9-1.588,4.87-9.874A3.474,3.474,0,0,1-27.927-40.376ZM-16.551-.367a1.545,1.545,0,0,0,1.164-.549,1.437,1.437,0,0,0,.319-1.205l-2.042-11.887,8.636-8.415a1.473,1.473,0,0,0,.38-1.539A1.47,1.47,0,0,0-9.3-24.985l-11.937-1.74-5.335-10.817a1.479,1.479,0,0,0-1.351-.834h0a1.467,1.467,0,0,0-1.34.835L-34.6-26.725l-11.936,1.74a1.47,1.47,0,0,0-1.209,1.021,1.473,1.473,0,0,0,.379,1.539l8.636,8.416L-40.774-2.121a1.461,1.461,0,0,0,.321,1.208,1.539,1.539,0,0,0,1.159.549A1.465,1.465,0,0,0-38.6-.541l10.681-5.614L-17.243-.542A1.474,1.474,0,0,0-16.551-.367Zm-11.37-35.946L-22.4-25.122l12.347,1.794-8.936,8.705,2.1,12.292-11.04-5.8-11.04,5.8,2.1-12.292-8.936-8.705,12.347-1.794Zm13.572,14.381-9.376-1.363-4.2-8.5-4.2,8.5-9.376,1.363,6.785,6.61-1.6,9.337,8.385-4.405,8.385,4.405-1.6-9.337Z" transform="translate(70.16 61.602)" fill="#c17f9e"></path></g></svg> 