<?xml version="1.0" encoding="UTF-8"?> <svg xmlns="http://www.w3.org/2000/svg" id="PAYU_LOGO" width="70.973" height="35.408" viewBox="0 0 70.973 35.408"><path id="Trazado_9732" data-name="Trazado 9732" d="M480.729,40.555a.834.834,0,0,1-.834-.834V36.032h-.307c-1.909,0-2.618.314-2.618,2.054v4.986c0,.032,0,.059,0,.091v5.683a3.049,3.049,0,0,1-.41,1.676c-.52.8-1.551,1.166-3.2,1.168s-2.677-.366-3.2-1.168a3.032,3.032,0,0,1-.41-1.678V43.161c0-.032,0-.061,0-.091V38.084c0-1.737-.709-2.054-2.618-2.054h-.6c-1.909,0-2.618.314-2.618,2.054V48.847a7.981,7.981,0,0,0,1.146,4.378c1.458,2.29,4.28,3.509,8.292,3.509h.029c4.012,0,6.834-1.22,8.292-3.509a8,8,0,0,0,1.146-4.378V40.555h-2.078Z" transform="translate(-419.202 -27.188)" fill="#525252"></path><rect id="Rect치ngulo_332" data-name="Rect치ngulo 332" width="4.38" height="4.42" rx="2.19" transform="translate(66.593 3.001)" fill="#525252"></rect><rect id="Rect치ngulo_333" data-name="Rect치ngulo 333" width="2.974" height="3.001" rx="1.487" transform="translate(63.616 0)" fill="#525252"></rect><path id="Trazado_9733" data-name="Trazado 9733" d="M289.816,36.01h-4.567c-2.439,0-3.529,1.087-3.529,3.529V55.212c0,.942.3,1.244,1.244,1.244h.309c.942,0,1.244-.3,1.244-1.244v-6.1h5.3c4.7,0,6.891-2.081,6.891-6.552s-2.189-6.552-6.891-6.552Zm4.093,6.552c0,2.555-.653,3.939-4.093,3.939h-5.3V39.909c0-.913.339-1.254,1.254-1.254h4.042C292.407,38.655,293.909,39.3,293.909,42.562Z" transform="translate(-281.72 -27.173)" fill="#525252"></path><path id="Trazado_9734" data-name="Trazado 9734" d="M348.4,54.33a16.169,16.169,0,0,0-3.374.314c-.761.164-1.08.375-1.08,1.242v.248a1.339,1.339,0,0,0,.157.739.665.665,0,0,0,.6.29,1.943,1.943,0,0,0,.471-.069,16.557,16.557,0,0,1,3.345-.334c2.731,0,3.845.756,3.845,2.611v1.654h-3.445c-4.427,0-6.491,1.494-6.491,4.7s2.13,4.824,5.995,4.824c4.594,0,6.643-1.563,6.643-5.07V59.37c0-3.391-2.184-5.04-6.675-5.04Zm3.968,8.908v2.15c0,1.752-.65,2.766-3.968,2.766-2.194,0-3.259-.793-3.259-2.427,0-1.791,1.07-2.488,3.813-2.488Z" transform="translate(-327.532 -40.998)" fill="#525252"></path><path id="Trazado_9735" data-name="Trazado 9735" d="M411.986,56.432a1.156,1.156,0,0,0-.932-.28h-.277a1.261,1.261,0,0,0-1.487,1.168L406.73,67.963c-.319,1.308-.768,1.546-1.536,1.546-.94,0-1.318-.226-1.693-1.553l-2.9-10.643a1.3,1.3,0,0,0-1.516-1.163h-.248a1.137,1.137,0,0,0-.933.282,1.152,1.152,0,0,0-.027.984l2.93,10.736c.55,2.054,1.2,3.755,3.644,3.755a3.889,3.889,0,0,0,1.227-.182c-.741,2.329-1.495,3.357-3.715,3.585-.452.037-.743.1-.908.321a1.065,1.065,0,0,0-.071.842l.061.275c.133.636.358,1.031,1.072,1.031.076,0,.155,0,.243-.012,3.318-.216,5.094-2,6.135-6.164l3.548-14.194a1.176,1.176,0,0,0-.059-.979Z" transform="translate(-369.3 -42.371)" fill="#525252"></path><path id="Trazado_9736" data-name="Trazado 9736" d="M534.112,30.222h-4.228a.833.833,0,0,0-.834.832v.589h.292c1.909,0,2.618.314,2.618,2.054v2.471h2.15a.834.834,0,0,0,.834-.834v-4.28a.833.833,0,0,0-.832-.834Z" transform="translate(-468.357 -22.804)" fill="#525252"></path></svg> 