<?xml version="1.0" encoding="UTF-8"?> <svg xmlns="http://www.w3.org/2000/svg" xmlns:xlink="http://www.w3.org/1999/xlink" width="46.884" height="46.882" viewBox="0 0 46.884 46.882"><defs><clipPath id="clip-path"><ellipse id="Circle" cx="23.442" cy="23.441" rx="23.442" ry="23.441" transform="translate(0 0)" fill="none"></ellipse></clipPath></defs><g id="pse-seeklogo" clip-path="url(#clip-path)"><g id="Grupo_1703" data-name="Grupo 1703" transform="translate(-1.879 0)"><ellipse id="Circle-2" cx="23.442" cy="23.441" rx="23.442" ry="23.441" transform="translate(1.879)" fill="#525252"></ellipse><path id="Trazado_12869" data-name="Trazado 12869" d="M179.623,292.622a.539.539,0,0,1-.1-.01.547.547,0,0,1-.437-.637l1.284-6.889v0l.894-4.79a3.764,3.764,0,0,1,3.7-3.073h2.61a2.476,2.476,0,0,1,2.434,2.93l-.893,4.791a3.764,3.764,0,0,1-3.7,3.073H182.8a2.468,2.468,0,0,1-1.736-.71l-.908,4.871a.546.546,0,0,1-.537.446Zm1.822-7.339h0a1.383,1.383,0,0,0,1.36,1.637h2.61a2.67,2.67,0,0,0,2.624-2.18l.893-4.791a1.383,1.383,0,0,0-1.36-1.636h-2.61a2.67,2.67,0,0,0-2.624,2.18l-.893,4.79Z" transform="translate(-167.557 -259.39)" fill="#fff"></path><path id="Trazado_12870" data-name="Trazado 12870" d="M351.291,288.033h-4.924a.547.547,0,1,1,0-1.093h4.924a2.351,2.351,0,0,0,2.306-1.906l.072-.373a1.382,1.382,0,0,0-1.358-1.643h-2.964a2.476,2.476,0,0,1-2.434-2.93l.007-.038a3.442,3.442,0,0,1,3.382-2.81h4.621a.547.547,0,1,1,0,1.093H350.3a2.349,2.349,0,0,0-2.308,1.917l-.007.038a1.383,1.383,0,0,0,1.36,1.636h2.964a2.476,2.476,0,0,1,2.432,2.942l-.071.373a3.445,3.445,0,0,1-3.379,2.794Z" transform="translate(-323.578 -259.409)" fill="#fff"></path><path id="Trazado_12871" data-name="Trazado 12871" d="M504.942,288.014h-5.3a2.6,2.6,0,0,1-2.561-3.082l.419-2.25a.172.172,0,0,0,0-.019l.442-2.37a3.764,3.764,0,0,1,3.7-3.073h2.748a2.6,2.6,0,0,1,2.56,3.082l-.479,2.571a.547.547,0,0,1-.538.446h-7.442l-.338,1.812a1.512,1.512,0,0,0,1.486,1.789h5.3a.547.547,0,1,1,0,1.093Zm-6.245-5.787h6.784l.4-2.124a1.512,1.512,0,0,0-1.486-1.788h-2.748a2.67,2.67,0,0,0-2.624,2.18l-.323,1.733Z" transform="translate(-465.068 -259.39)" fill="#fff"></path><g id="Grupo_1701" data-name="Grupo 1701" transform="translate(0.974 12.309)"><g id="Grupo_1697" data-name="Grupo 1697" transform="translate(2.243)"><ellipse id="Elipse_209" data-name="Elipse 209" cx="1.097" cy="1.097" rx="1.097" ry="1.097" fill="#fff"></ellipse><ellipse id="Elipse_210" data-name="Elipse 210" cx="1.097" cy="1.097" rx="1.097" ry="1.097" transform="translate(0 13.025)" fill="#fff"></ellipse><ellipse id="Elipse_211" data-name="Elipse 211" cx="1.097" cy="1.097" rx="1.097" ry="1.097" transform="translate(0 6.513)" fill="none"></ellipse><ellipse id="Elipse_212" data-name="Elipse 212" cx="1.097" cy="1.097" rx="1.097" ry="1.097" transform="translate(0 19.537)" fill="#fff"></ellipse></g><g id="Grupo_1700" data-name="Grupo 1700" transform="translate(0 3.256)"><g id="Grupo_1698" data-name="Grupo 1698"><ellipse id="Elipse_213" data-name="Elipse 213" cx="1.097" cy="1.097" rx="1.097" ry="1.097" fill="#fff"></ellipse><ellipse id="Elipse_214" data-name="Elipse 214" cx="1.097" cy="1.097" rx="1.097" ry="1.097" transform="translate(0 13.025)" fill="#fff"></ellipse><ellipse id="Elipse_215" data-name="Elipse 215" cx="1.097" cy="1.097" rx="1.097" ry="1.097" transform="translate(0 6.512)" fill="none"></ellipse></g><g id="Grupo_1699" data-name="Grupo 1699" transform="translate(4.487)"><ellipse id="Elipse_216" data-name="Elipse 216" cx="1.097" cy="1.097" rx="1.097" ry="1.097" fill="#fff"></ellipse><ellipse id="Elipse_217" data-name="Elipse 217" cx="1.097" cy="1.097" rx="1.097" ry="1.097" transform="translate(0 13.025)" fill="#fff"></ellipse><ellipse id="Elipse_218" data-name="Elipse 218" cx="1.097" cy="1.097" rx="1.097" ry="1.097" transform="translate(0 6.512)" fill="none"></ellipse></g></g></g><path id="Trazado_12872" data-name="Trazado 12872" d="M7.575,308,4.881,304.69H0v.643H4.575L6.745,308H0v.643H8.771L7.349,311.2H4.314v.643H7.727l1.78-3.2h3.058L12.7,308Z" transform="translate(0 -285.093)" fill="#fff"></path><path id="Trazado_12873" data-name="Trazado 12873" d="M286.731,212.095a.578.578,0,0,0-.443-.206H285.9a.831.831,0,0,0-.469.144l.157-.92a.129.129,0,0,0-.254-.043l-.259,1.515h0l-.111.653-.122.715a.129.129,0,0,0,.106.149l.022,0A.129.129,0,0,0,285.1,214l.114-.673h0l.007-.042.111-.653a.577.577,0,0,1,.57-.481h.388a.322.322,0,0,1,.317.376l-.244,1.43a.129.129,0,0,0,.105.149l.022,0a.129.129,0,0,0,.127-.107l.244-1.43a.578.578,0,0,0-.128-.471Z" transform="translate(-266.52 -197.394)" fill="#fff"></path><path id="Trazado_12874" data-name="Trazado 12874" d="M258.858,227.583h-.939a.579.579,0,0,1-.57-.677l.143-.841a.834.834,0,0,1,.824-.7h.845a.129.129,0,0,1,0,.257h-.845a.577.577,0,0,0-.57.482l-.143.841a.322.322,0,0,0,.317.376h.939a.129.129,0,1,1,0,.257Z" transform="translate(-240.789 -210.875)" fill="#fff"></path><g id="Grupo_1702" data-name="Grupo 1702" transform="translate(14.677 14.495)"><path id="Trazado_12875" data-name="Trazado 12875" d="M229.336,227.583h-.558a.579.579,0,0,1-.57-.677l.014-.082a.642.642,0,0,1,.634-.535h.928l.049-.287a.322.322,0,0,0-.317-.376H228.7a.129.129,0,1,1,0-.257h.812a.579.579,0,0,1,.57.677l-.067.391v.006l-.112.658a.577.577,0,0,1-.571.482Zm-.48-1.036a.385.385,0,0,0-.38.321l-.014.082a.322.322,0,0,0,.317.376h.558a.321.321,0,0,0,.317-.268l.087-.511h-.884Z" transform="translate(-228.2 -225.37)" fill="#fff"></path><path id="Trazado_12876" data-name="Trazado 12876" d="M229.336,227.583h-.558a.579.579,0,0,1-.57-.677l.014-.082a.642.642,0,0,1,.634-.535h.928l.049-.287a.322.322,0,0,0-.317-.376H228.7a.129.129,0,1,1,0-.257h.812a.579.579,0,0,1,.57.677l-.067.391v.006l-.112.658a.577.577,0,0,1-.571.482Zm-.48-1.036a.385.385,0,0,0-.38.321l-.014.082a.322.322,0,0,0,.317.376h.558a.321.321,0,0,0,.317-.268l.087-.511h-.884Z" transform="translate(-228.2 -225.37)" fill="#fff"></path></g></g></g></svg> 