<?xml version="1.0" encoding="UTF-8"?> <svg xmlns="http://www.w3.org/2000/svg" width="16" height="16" viewBox="0 0 16 16"><path id="tel" d="M19.415-2.694l-3.5-1.5a.747.747,0,0,0-.293-.06.749.749,0,0,0-.582.275L13.49-2.084A11.574,11.574,0,0,1,7.953-7.622l1.894-1.55a.747.747,0,0,0,.277-.581.747.747,0,0,0-.061-.294l-1.5-3.5A.756.756,0,0,0,7.87-14a.749.749,0,0,0-.167.019l-3.25.75a.751.751,0,0,0-.581.731h0A14.5,14.5,0,0,0,18.372,2h0a.751.751,0,0,0,.731-.581l.75-3.25A.762.762,0,0,0,19.872-2,.758.758,0,0,0,19.415-2.694Z" transform="translate(-3.872 14)" fill="#fff"></path></svg> 