<?xml version="1.0" encoding="UTF-8"?> <svg xmlns="http://www.w3.org/2000/svg" width="14" height="14" viewBox="0 0 14 14"><path id="wapp" d="M15.775-10.966A6.885,6.885,0,0,0,10.869-13,6.946,6.946,0,0,0,3.931-6.062a6.945,6.945,0,0,0,.925,3.469L3.872,1,7.55.034a6.916,6.916,0,0,0,3.316.844h0a7,7,0,0,0,7-6.937A6.965,6.965,0,0,0,15.775-10.966ZM10.869-.291a5.756,5.756,0,0,1-2.937-.8l-.209-.125L5.541-.647l.581-2.128-.138-.219A5.747,5.747,0,0,1,5.1-6.062a5.774,5.774,0,0,1,5.769-5.766,5.715,5.715,0,0,1,4.075,1.691A5.789,5.789,0,0,1,16.7-6.059,5.831,5.831,0,0,1,10.869-.291Zm3.162-4.319c-.172-.087-1.025-.506-1.184-.562s-.275-.087-.391.087-.447.563-.55.681-.2.131-.375.044A4.718,4.718,0,0,1,9.172-6.422c-.178-.306.178-.284.509-.947a.321.321,0,0,0-.016-.3c-.044-.087-.391-.941-.534-1.288s-.284-.291-.391-.3-.216-.006-.331-.006a.642.642,0,0,0-.462.216A1.948,1.948,0,0,0,7.341-7.6a3.4,3.4,0,0,0,.706,1.794A7.746,7.746,0,0,0,11.01-3.187a3.392,3.392,0,0,0,2.081.434,1.776,1.776,0,0,0,1.169-.825,1.45,1.45,0,0,0,.1-.825C14.319-4.481,14.2-4.525,14.031-4.609Z" transform="translate(-3.872 13)" fill="#fff"></path></svg> 