<?xml version="1.0" encoding="UTF-8"?> <svg xmlns="http://www.w3.org/2000/svg" width="81" height="81" viewBox="0 0 81 81"><defs><style> .cls-1 { fill: #fff; } </style></defs><g id="whatsapp" transform="translate(2 1)"><g id="Grupo_3117" data-name="Grupo 3117" transform="translate(-2 -1)"><g id="Grupo_3116" data-name="Grupo 3116" transform="translate(0 0)"><path id="Trazado_18859" data-name="Trazado 18859" class="cls-1" d="M38.634-1A39.844,39.844,0,0,0,3.9,58.811L-2,80l21.591-5.767a41.2,41.2,0,0,0,19.043,5.23C60.493,79.463,79,60.957,79,38.963S60.9-1,38.634-1Zm0,77.782A38.2,38.2,0,0,1,20.4,71.551l-.536-.268-18.1,4.962L6.717,58.409l-.268-.536a37.879,37.879,0,0,1-5.23-18.909,37.551,37.551,0,0,1,75.1,0C76.318,59.482,59.018,76.782,38.634,76.782Z" transform="translate(2 1)"></path><path id="Trazado_18860" data-name="Trazado 18860" class="cls-1" d="M76.716,40.967A33.367,33.367,0,0,0,43.324,74.225a34.765,34.765,0,0,0,5.23,18.238l.536.671-3.621,12.74,13.142-3.353.671.4A33.482,33.482,0,1,0,76.716,40.967Zm-.134,64.505a31.126,31.126,0,0,1-15.959-4.828l-1.609-1.073-9.79,2.414L51.907,92.6l-1.073-1.743a30.44,30.44,0,0,1-4.828-16.629,30.764,30.764,0,0,1,30.71-30.576c17.031,0,30.979,13.813,30.979,30.576A31.337,31.337,0,0,1,76.582,105.472Z" transform="translate(-36.082 -34.262)"></path><path id="Trazado_18861" data-name="Trazado 18861" class="cls-1" d="M165.207,154.947l-8.449-3.889a2.687,2.687,0,0,0-3.218.8l-3.219,4.157a24.971,24.971,0,0,1-13.008-11.131l2.95-3.487a2.7,2.7,0,0,0,.4-2.816L137.045,130a2.466,2.466,0,0,0-2.28-1.609l-2.548-.134a4.351,4.351,0,0,0-3.084,1.073,12.757,12.757,0,0,0-4.157,6.437c-.939,4.425.536,9.656,4.291,14.752a41.456,41.456,0,0,0,22.664,16.495,13.566,13.566,0,0,0,3.889.536,12.7,12.7,0,0,0,6.3-1.743,9.619,9.619,0,0,0,4.157-6.035l.4-1.878A2.7,2.7,0,0,0,165.207,154.947Zm-1.743,4.157a7,7,0,0,1-2.95,4.291,9.46,9.46,0,0,1-7.912.939c-12.472-3.487-19.043-12.472-21.189-15.422-3.218-4.425-4.56-8.985-3.755-12.606a9.963,9.963,0,0,1,3.353-5.1,1.523,1.523,0,0,1,1.073-.4l2.682.268,3.621,8.449-3.219,3.621a2.487,2.487,0,0,0-.268,2.548,27.019,27.019,0,0,0,14.886,12.74,2.363,2.363,0,0,0,2.548-.8l3.219-4.291L164,157.227Z" transform="translate(-104.457 -107.608)"></path></g></g></g></svg> 